<svg id="visual" viewBox="0 0 1920 1080" width="1920" height="1080" xmlns="http://www.w3.org/2000/svg" xmlns:xlink="http://www.w3.org/1999/xlink" version="1.1"><rect x="0" y="0" width="1920" height="1080" fill="#fef5da"></rect><path d="M0 303L22.8 292.2C45.7 281.3 91.3 259.7 137 248C182.7 236.3 228.3 234.7 274 255.2C319.7 275.7 365.3 318.3 411.2 331C457 343.7 503 326.3 548.8 316C594.7 305.7 640.3 302.3 686 307C731.7 311.7 777.3 324.3 823 319.2C868.7 314 914.3 291 960 288.8C1005.7 286.7 1051.3 305.3 1097 300.3C1142.7 295.3 1188.3 266.7 1234 259.5C1279.7 252.3 1325.3 266.7 1371.2 271.2C1417 275.7 1463 270.3 1508.8 273.7C1554.7 277 1600.3 289 1646 287.7C1691.7 286.3 1737.3 271.7 1783 278.8C1828.7 286 1874.3 315 1897.2 329.5L1920 344L1920 0L1897.2 0C1874.3 0 1828.7 0 1783 0C1737.3 0 1691.7 0 1646 0C1600.3 0 1554.7 0 1508.8 0C1463 0 1417 0 1371.2 0C1325.3 0 1279.7 0 1234 0C1188.3 0 1142.7 0 1097 0C1051.3 0 1005.7 0 960 0C914.3 0 868.7 0 823 0C777.3 0 731.7 0 686 0C640.3 0 594.7 0 548.8 0C503 0 457 0 411.2 0C365.3 0 319.7 0 274 0C228.3 0 182.7 0 137 0C91.3 0 45.7 0 22.8 0L0 0Z" fill="#fdd87d"></path><path d="M0 296L22.8 287.5C45.7 279 91.3 262 137 247.7C182.7 233.3 228.3 221.7 274 220C319.7 218.3 365.3 226.7 411.2 234.3C457 242 503 249 548.8 262C594.7 275 640.3 294 686 291.2C731.7 288.3 777.3 263.7 823 247.2C868.7 230.7 914.3 222.3 960 225C1005.7 227.7 1051.3 241.3 1097 244.7C1142.7 248 1188.3 241 1234 230.5C1279.7 220 1325.3 206 1371.2 211.5C1417 217 1463 242 1508.8 259C1554.7 276 1600.3 285 1646 285.7C1691.7 286.3 1737.3 278.7 1783 267.8C1828.7 257 1874.3 243 1897.2 236L1920 229L1920 0L1897.2 0C1874.3 0 1828.7 0 1783 0C1737.3 0 1691.7 0 1646 0C1600.3 0 1554.7 0 1508.8 0C1463 0 1417 0 1371.2 0C1325.3 0 1279.7 0 1234 0C1188.3 0 1142.7 0 1097 0C1051.3 0 1005.7 0 960 0C914.3 0 868.7 0 823 0C777.3 0 731.7 0 686 0C640.3 0 594.7 0 548.8 0C503 0 457 0 411.2 0C365.3 0 319.7 0 274 0C228.3 0 182.7 0 137 0C91.3 0 45.7 0 22.8 0L0 0Z" fill="#fbd476"></path><path d="M0 203L22.8 196.8C45.7 190.7 91.3 178.3 137 184.8C182.7 191.3 228.3 216.7 274 221C319.7 225.3 365.3 208.7 411.2 214.8C457 221 503 250 548.8 253.2C594.7 256.3 640.3 233.7 686 218.7C731.7 203.7 777.3 196.3 823 192.2C868.7 188 914.3 187 960 192C1005.7 197 1051.3 208 1097 223.3C1142.7 238.7 1188.3 258.3 1234 254.7C1279.7 251 1325.3 224 1371.2 220.3C1417 216.7 1463 236.3 1508.8 242.7C1554.7 249 1600.3 242 1646 232.7C1691.7 223.3 1737.3 211.7 1783 214.3C1828.7 217 1874.3 234 1897.2 242.5L1920 251L1920 0L1897.2 0C1874.3 0 1828.7 0 1783 0C1737.3 0 1691.7 0 1646 0C1600.3 0 1554.7 0 1508.8 0C1463 0 1417 0 1371.2 0C1325.3 0 1279.7 0 1234 0C1188.3 0 1142.7 0 1097 0C1051.3 0 1005.7 0 960 0C914.3 0 868.7 0 823 0C777.3 0 731.7 0 686 0C640.3 0 594.7 0 548.8 0C503 0 457 0 411.2 0C365.3 0 319.7 0 274 0C228.3 0 182.7 0 137 0C91.3 0 45.7 0 22.8 0L0 0Z" fill="#f8d06f"></path><path d="M0 222L22.8 218.7C45.7 215.3 91.3 208.7 137 202.2C182.7 195.7 228.3 189.3 274 183.8C319.7 178.3 365.3 173.7 411.2 174.2C457 174.7 503 180.3 548.8 176.5C594.7 172.7 640.3 159.3 686 152.3C731.7 145.3 777.3 144.7 823 151.7C868.7 158.7 914.3 173.3 960 178.3C1005.7 183.3 1051.3 178.7 1097 175.7C1142.7 172.7 1188.3 171.3 1234 181.2C1279.7 191 1325.3 212 1371.2 213.7C1417 215.3 1463 197.7 1508.8 197.5C1554.7 197.3 1600.3 214.7 1646 224.8C1691.7 235 1737.3 238 1783 238.5C1828.7 239 1874.3 237 1897.2 236L1920 235L1920 0L1897.2 0C1874.3 0 1828.7 0 1783 0C1737.3 0 1691.7 0 1646 0C1600.3 0 1554.7 0 1508.8 0C1463 0 1417 0 1371.2 0C1325.3 0 1279.7 0 1234 0C1188.3 0 1142.7 0 1097 0C1051.3 0 1005.7 0 960 0C914.3 0 868.7 0 823 0C777.3 0 731.7 0 686 0C640.3 0 594.7 0 548.8 0C503 0 457 0 411.2 0C365.3 0 319.7 0 274 0C228.3 0 182.7 0 137 0C91.3 0 45.7 0 22.8 0L0 0Z" fill="#f6cc68"></path><path d="M0 136L22.8 146.3C45.7 156.7 91.3 177.3 137 180.5C182.7 183.7 228.3 169.3 274 160.3C319.7 151.3 365.3 147.7 411.2 152.8C457 158 503 172 548.8 181.3C594.7 190.7 640.3 195.3 686 185.3C731.7 175.3 777.3 150.7 823 148C868.7 145.3 914.3 164.7 960 173.7C1005.7 182.7 1051.3 181.3 1097 183.3C1142.7 185.3 1188.3 190.7 1234 191.8C1279.7 193 1325.3 190 1371.2 189.8C1417 189.7 1463 192.3 1508.8 184.2C1554.7 176 1600.3 157 1646 156.5C1691.7 156 1737.3 174 1783 181.7C1828.7 189.3 1874.3 186.7 1897.2 185.3L1920 184L1920 0L1897.2 0C1874.3 0 1828.7 0 1783 0C1737.3 0 1691.7 0 1646 0C1600.3 0 1554.7 0 1508.8 0C1463 0 1417 0 1371.2 0C1325.3 0 1279.7 0 1234 0C1188.3 0 1142.7 0 1097 0C1051.3 0 1005.7 0 960 0C914.3 0 868.7 0 823 0C777.3 0 731.7 0 686 0C640.3 0 594.7 0 548.8 0C503 0 457 0 411.2 0C365.3 0 319.7 0 274 0C228.3 0 182.7 0 137 0C91.3 0 45.7 0 22.8 0L0 0Z" fill="#f4c862"></path><path d="M0 104L22.8 105.8C45.7 107.7 91.3 111.3 137 115.3C182.7 119.3 228.3 123.7 274 129C319.7 134.3 365.3 140.7 411.2 145.5C457 150.3 503 153.7 548.8 149.7C594.7 145.7 640.3 134.3 686 130.5C731.7 126.7 777.3 130.3 823 126.8C868.7 123.3 914.3 112.7 960 105.8C1005.7 99 1051.3 96 1097 101.8C1142.7 107.7 1188.3 122.3 1234 128C1279.7 133.7 1325.3 130.3 1371.2 131.2C1417 132 1463 137 1508.8 132.3C1554.7 127.7 1600.3 113.3 1646 107.5C1691.7 101.7 1737.3 104.3 1783 112.7C1828.7 121 1874.3 135 1897.2 142L1920 149L1920 0L1897.2 0C1874.3 0 1828.7 0 1783 0C1737.3 0 1691.7 0 1646 0C1600.3 0 1554.7 0 1508.8 0C1463 0 1417 0 1371.2 0C1325.3 0 1279.7 0 1234 0C1188.3 0 1142.7 0 1097 0C1051.3 0 1005.7 0 960 0C914.3 0 868.7 0 823 0C777.3 0 731.7 0 686 0C640.3 0 594.7 0 548.8 0C503 0 457 0 411.2 0C365.3 0 319.7 0 274 0C228.3 0 182.7 0 137 0C91.3 0 45.7 0 22.8 0L0 0Z" fill="#f2c45b"></path><path d="M0 102L22.8 96.3C45.7 90.7 91.3 79.3 137 77.3C182.7 75.3 228.3 82.7 274 84.8C319.7 87 365.3 84 411.2 81C457 78 503 75 548.8 75.3C594.7 75.7 640.3 79.3 686 81C731.7 82.7 777.3 82.3 823 82C868.7 81.7 914.3 81.3 960 82.3C1005.7 83.3 1051.3 85.7 1097 87.2C1142.7 88.7 1188.3 89.3 1234 91C1279.7 92.7 1325.3 95.3 1371.2 92.3C1417 89.3 1463 80.7 1508.8 80C1554.7 79.3 1600.3 86.7 1646 92.7C1691.7 98.7 1737.3 103.3 1783 103C1828.7 102.7 1874.3 97.3 1897.2 94.7L1920 92L1920 0L1897.2 0C1874.3 0 1828.7 0 1783 0C1737.3 0 1691.7 0 1646 0C1600.3 0 1554.7 0 1508.8 0C1463 0 1417 0 1371.2 0C1325.3 0 1279.7 0 1234 0C1188.3 0 1142.7 0 1097 0C1051.3 0 1005.7 0 960 0C914.3 0 868.7 0 823 0C777.3 0 731.7 0 686 0C640.3 0 594.7 0 548.8 0C503 0 457 0 411.2 0C365.3 0 319.7 0 274 0C228.3 0 182.7 0 137 0C91.3 0 45.7 0 22.8 0L0 0Z" fill="#efbf54"></path><path d="M0 46L22.8 48.3C45.7 50.7 91.3 55.3 137 57C182.7 58.7 228.3 57.3 274 55.5C319.7 53.7 365.3 51.3 411.2 49.5C457 47.7 503 46.3 548.8 45.8C594.7 45.3 640.3 45.7 686 47.8C731.7 50 777.3 54 823 58.5C868.7 63 914.3 68 960 70.8C1005.7 73.7 1051.3 74.3 1097 72.8C1142.7 71.3 1188.3 67.7 1234 67.8C1279.7 68 1325.3 72 1371.2 68.8C1417 65.7 1463 55.3 1508.8 54.7C1554.7 54 1600.3 63 1646 63C1691.7 63 1737.3 54 1783 51.3C1828.7 48.7 1874.3 52.3 1897.2 54.2L1920 56L1920 0L1897.2 0C1874.3 0 1828.7 0 1783 0C1737.3 0 1691.7 0 1646 0C1600.3 0 1554.7 0 1508.8 0C1463 0 1417 0 1371.2 0C1325.3 0 1279.7 0 1234 0C1188.3 0 1142.7 0 1097 0C1051.3 0 1005.7 0 960 0C914.3 0 868.7 0 823 0C777.3 0 731.7 0 686 0C640.3 0 594.7 0 548.8 0C503 0 457 0 411.2 0C365.3 0 319.7 0 274 0C228.3 0 182.7 0 137 0C91.3 0 45.7 0 22.8 0L0 0Z" fill="#edbb4d"></path></svg>