<svg id="visual" viewBox="0 0 1920 1080" width="1920" height="1080" xmlns="http://www.w3.org/2000/svg" xmlns:xlink="http://www.w3.org/1999/xlink" version="1.1"><rect x="0" y="0" width="1920" height="1080" fill="#fef5da"></rect><path d="M0 774L22.8 781.2C45.7 788.3 91.3 802.7 137 808.7C182.7 814.7 228.3 812.3 274 817.5C319.7 822.7 365.3 835.3 411.2 824.3C457 813.3 503 778.7 548.8 757.8C594.7 737 640.3 730 686 733.5C731.7 737 777.3 751 823 749.3C868.7 747.7 914.3 730.3 960 735.3C1005.7 740.3 1051.3 767.7 1097 783.8C1142.7 800 1188.3 805 1234 797.8C1279.7 790.7 1325.3 771.3 1371.2 776.3C1417 781.3 1463 810.7 1508.8 807.2C1554.7 803.7 1600.3 767.3 1646 762.3C1691.7 757.3 1737.3 783.7 1783 795.2C1828.7 806.7 1874.3 803.3 1897.2 801.7L1920 800L1920 1081L1897.2 1081C1874.3 1081 1828.7 1081 1783 1081C1737.3 1081 1691.7 1081 1646 1081C1600.3 1081 1554.7 1081 1508.8 1081C1463 1081 1417 1081 1371.2 1081C1325.3 1081 1279.7 1081 1234 1081C1188.3 1081 1142.7 1081 1097 1081C1051.3 1081 1005.7 1081 960 1081C914.3 1081 868.7 1081 823 1081C777.3 1081 731.7 1081 686 1081C640.3 1081 594.7 1081 548.8 1081C503 1081 457 1081 411.2 1081C365.3 1081 319.7 1081 274 1081C228.3 1081 182.7 1081 137 1081C91.3 1081 45.7 1081 22.8 1081L0 1081Z" fill="#fdd87d"></path><path d="M0 856L22.8 841.7C45.7 827.3 91.3 798.7 137 794.5C182.7 790.3 228.3 810.7 274 820.5C319.7 830.3 365.3 829.7 411.2 838.8C457 848 503 867 548.8 865.5C594.7 864 640.3 842 686 837C731.7 832 777.3 844 823 854.7C868.7 865.3 914.3 874.7 960 871.7C1005.7 868.7 1051.3 853.3 1097 834.3C1142.7 815.3 1188.3 792.7 1234 799.5C1279.7 806.3 1325.3 842.7 1371.2 859.7C1417 876.7 1463 874.3 1508.8 865.8C1554.7 857.3 1600.3 842.7 1646 843.2C1691.7 843.7 1737.3 859.3 1783 853.8C1828.7 848.3 1874.3 821.7 1897.2 808.3L1920 795L1920 1081L1897.2 1081C1874.3 1081 1828.7 1081 1783 1081C1737.3 1081 1691.7 1081 1646 1081C1600.3 1081 1554.7 1081 1508.8 1081C1463 1081 1417 1081 1371.2 1081C1325.3 1081 1279.7 1081 1234 1081C1188.3 1081 1142.7 1081 1097 1081C1051.3 1081 1005.7 1081 960 1081C914.3 1081 868.7 1081 823 1081C777.3 1081 731.7 1081 686 1081C640.3 1081 594.7 1081 548.8 1081C503 1081 457 1081 411.2 1081C365.3 1081 319.7 1081 274 1081C228.3 1081 182.7 1081 137 1081C91.3 1081 45.7 1081 22.8 1081L0 1081Z" fill="#fbd476"></path><path d="M0 883L22.8 882.8C45.7 882.7 91.3 882.3 137 879C182.7 875.7 228.3 869.3 274 873.5C319.7 877.7 365.3 892.3 411.2 883.7C457 875 503 843 548.8 832.5C594.7 822 640.3 833 686 849.8C731.7 866.7 777.3 889.3 823 882.2C868.7 875 914.3 838 960 824.2C1005.7 810.3 1051.3 819.7 1097 833.5C1142.7 847.3 1188.3 865.7 1234 872.5C1279.7 879.3 1325.3 874.7 1371.2 872.3C1417 870 1463 870 1508.8 867.8C1554.7 865.7 1600.3 861.3 1646 860.5C1691.7 859.7 1737.3 862.3 1783 859.2C1828.7 856 1874.3 847 1897.2 842.5L1920 838L1920 1081L1897.2 1081C1874.3 1081 1828.7 1081 1783 1081C1737.3 1081 1691.7 1081 1646 1081C1600.3 1081 1554.7 1081 1508.8 1081C1463 1081 1417 1081 1371.2 1081C1325.3 1081 1279.7 1081 1234 1081C1188.3 1081 1142.7 1081 1097 1081C1051.3 1081 1005.7 1081 960 1081C914.3 1081 868.7 1081 823 1081C777.3 1081 731.7 1081 686 1081C640.3 1081 594.7 1081 548.8 1081C503 1081 457 1081 411.2 1081C365.3 1081 319.7 1081 274 1081C228.3 1081 182.7 1081 137 1081C91.3 1081 45.7 1081 22.8 1081L0 1081Z" fill="#f8d06f"></path><path d="M0 913L22.8 911.2C45.7 909.3 91.3 905.7 137 898.8C182.7 892 228.3 882 274 882C319.7 882 365.3 892 411.2 890.2C457 888.3 503 874.7 548.8 880.3C594.7 886 640.3 911 686 908.3C731.7 905.7 777.3 875.3 823 873.2C868.7 871 914.3 897 960 896.5C1005.7 896 1051.3 869 1097 856.2C1142.7 843.3 1188.3 844.7 1234 852.2C1279.7 859.7 1325.3 873.3 1371.2 876.8C1417 880.3 1463 873.7 1508.8 871.8C1554.7 870 1600.3 873 1646 881C1691.7 889 1737.3 902 1783 904.3C1828.7 906.7 1874.3 898.3 1897.2 894.2L1920 890L1920 1081L1897.2 1081C1874.3 1081 1828.7 1081 1783 1081C1737.3 1081 1691.7 1081 1646 1081C1600.3 1081 1554.7 1081 1508.8 1081C1463 1081 1417 1081 1371.2 1081C1325.3 1081 1279.7 1081 1234 1081C1188.3 1081 1142.7 1081 1097 1081C1051.3 1081 1005.7 1081 960 1081C914.3 1081 868.7 1081 823 1081C777.3 1081 731.7 1081 686 1081C640.3 1081 594.7 1081 548.8 1081C503 1081 457 1081 411.2 1081C365.3 1081 319.7 1081 274 1081C228.3 1081 182.7 1081 137 1081C91.3 1081 45.7 1081 22.8 1081L0 1081Z" fill="#f6cc68"></path><path d="M0 898L22.8 907.7C45.7 917.3 91.3 936.7 137 940.7C182.7 944.7 228.3 933.3 274 929.8C319.7 926.3 365.3 930.7 411.2 929C457 927.3 503 919.7 548.8 915.8C594.7 912 640.3 912 686 908.5C731.7 905 777.3 898 823 892.3C868.7 886.7 914.3 882.3 960 885.2C1005.7 888 1051.3 898 1097 904.3C1142.7 910.7 1188.3 913.3 1234 917C1279.7 920.7 1325.3 925.3 1371.2 929.7C1417 934 1463 938 1508.8 931.3C1554.7 924.7 1600.3 907.3 1646 905.8C1691.7 904.3 1737.3 918.7 1783 929.5C1828.7 940.3 1874.3 947.7 1897.2 951.3L1920 955L1920 1081L1897.2 1081C1874.3 1081 1828.7 1081 1783 1081C1737.3 1081 1691.7 1081 1646 1081C1600.3 1081 1554.7 1081 1508.8 1081C1463 1081 1417 1081 1371.2 1081C1325.3 1081 1279.7 1081 1234 1081C1188.3 1081 1142.7 1081 1097 1081C1051.3 1081 1005.7 1081 960 1081C914.3 1081 868.7 1081 823 1081C777.3 1081 731.7 1081 686 1081C640.3 1081 594.7 1081 548.8 1081C503 1081 457 1081 411.2 1081C365.3 1081 319.7 1081 274 1081C228.3 1081 182.7 1081 137 1081C91.3 1081 45.7 1081 22.8 1081L0 1081Z" fill="#f4c862"></path><path d="M0 954L22.8 956C45.7 958 91.3 962 137 965.3C182.7 968.7 228.3 971.3 274 967.7C319.7 964 365.3 954 411.2 951.7C457 949.3 503 954.7 548.8 956.8C594.7 959 640.3 958 686 954C731.7 950 777.3 943 823 938.3C868.7 933.7 914.3 931.3 960 935.3C1005.7 939.3 1051.3 949.7 1097 956.2C1142.7 962.7 1188.3 965.3 1234 962.7C1279.7 960 1325.3 952 1371.2 953.8C1417 955.7 1463 967.3 1508.8 968.3C1554.7 969.3 1600.3 959.7 1646 953.8C1691.7 948 1737.3 946 1783 944C1828.7 942 1874.3 940 1897.2 939L1920 938L1920 1081L1897.2 1081C1874.3 1081 1828.7 1081 1783 1081C1737.3 1081 1691.7 1081 1646 1081C1600.3 1081 1554.7 1081 1508.8 1081C1463 1081 1417 1081 1371.2 1081C1325.3 1081 1279.7 1081 1234 1081C1188.3 1081 1142.7 1081 1097 1081C1051.3 1081 1005.7 1081 960 1081C914.3 1081 868.7 1081 823 1081C777.3 1081 731.7 1081 686 1081C640.3 1081 594.7 1081 548.8 1081C503 1081 457 1081 411.2 1081C365.3 1081 319.7 1081 274 1081C228.3 1081 182.7 1081 137 1081C91.3 1081 45.7 1081 22.8 1081L0 1081Z" fill="#f2c45b"></path><path d="M0 971L22.8 970.2C45.7 969.3 91.3 967.7 137 970C182.7 972.3 228.3 978.7 274 981.2C319.7 983.7 365.3 982.3 411.2 980.8C457 979.3 503 977.7 548.8 980.3C594.7 983 640.3 990 686 991.2C731.7 992.3 777.3 987.7 823 986.3C868.7 985 914.3 987 960 985.5C1005.7 984 1051.3 979 1097 979.3C1142.7 979.7 1188.3 985.3 1234 984C1279.7 982.7 1325.3 974.3 1371.2 977C1417 979.7 1463 993.3 1508.8 998.7C1554.7 1004 1600.3 1001 1646 998C1691.7 995 1737.3 992 1783 989C1828.7 986 1874.3 983 1897.2 981.5L1920 980L1920 1081L1897.2 1081C1874.3 1081 1828.7 1081 1783 1081C1737.3 1081 1691.7 1081 1646 1081C1600.3 1081 1554.7 1081 1508.8 1081C1463 1081 1417 1081 1371.2 1081C1325.3 1081 1279.7 1081 1234 1081C1188.3 1081 1142.7 1081 1097 1081C1051.3 1081 1005.7 1081 960 1081C914.3 1081 868.7 1081 823 1081C777.3 1081 731.7 1081 686 1081C640.3 1081 594.7 1081 548.8 1081C503 1081 457 1081 411.2 1081C365.3 1081 319.7 1081 274 1081C228.3 1081 182.7 1081 137 1081C91.3 1081 45.7 1081 22.8 1081L0 1081Z" fill="#efbf54"></path><path d="M0 1025L22.8 1022.5C45.7 1020 91.3 1015 137 1014.8C182.7 1014.7 228.3 1019.3 274 1022.2C319.7 1025 365.3 1026 411.2 1025.8C457 1025.7 503 1024.3 548.8 1024C594.7 1023.7 640.3 1024.3 686 1021.3C731.7 1018.3 777.3 1011.7 823 1010.3C868.7 1009 914.3 1013 960 1014.5C1005.7 1016 1051.3 1015 1097 1017.7C1142.7 1020.3 1188.3 1026.7 1234 1025.8C1279.7 1025 1325.3 1017 1371.2 1016.7C1417 1016.3 1463 1023.7 1508.8 1025.3C1554.7 1027 1600.3 1023 1646 1019.8C1691.7 1016.7 1737.3 1014.3 1783 1013.8C1828.7 1013.3 1874.3 1014.7 1897.2 1015.3L1920 1016L1920 1081L1897.2 1081C1874.3 1081 1828.7 1081 1783 1081C1737.3 1081 1691.7 1081 1646 1081C1600.3 1081 1554.7 1081 1508.8 1081C1463 1081 1417 1081 1371.2 1081C1325.3 1081 1279.7 1081 1234 1081C1188.3 1081 1142.7 1081 1097 1081C1051.3 1081 1005.7 1081 960 1081C914.3 1081 868.7 1081 823 1081C777.3 1081 731.7 1081 686 1081C640.3 1081 594.7 1081 548.8 1081C503 1081 457 1081 411.2 1081C365.3 1081 319.7 1081 274 1081C228.3 1081 182.7 1081 137 1081C91.3 1081 45.7 1081 22.8 1081L0 1081Z" fill="#edbb4d"></path></svg>